<svg xmlns="http://www.w3.org/2000/svg" viewBox="0 0 1600 900" preserveAspectRatio="xMidYMid slice">
  <g fill="#3d6b80"><path d="M1098 674 Q1130 626 1168 638 Q1196 648 1208 670 Q1194 666 1184 662 Q1160 652 1134 648 Q1114 650 1106 664 Z"/><path d="M1144 634 Q1148 616 1164 624 Q1154 630 1152 636 Z"/><path d="M1098 674 Q1086 658 1074 654 Q1084 670 1092 682 Z"/></g>
  <g fill="#3d6b80"><path d="M1249 683 Q1274 645 1304 655 Q1326 663 1335 680 Q1324 677 1317 674 Q1298 666 1278 663 Q1262 664 1256 675 Z"/><path d="M1285 652 Q1288 638 1301 644 Q1293 649 1292 653 Z"/><path d="M1249 683 Q1240 670 1231 667 Q1239 680 1245 689 Z"/></g>
</svg>
